<svg width="28" height="28" viewBox="0 0 28 28" fill="none" xmlns="http://www.w3.org/2000/svg">
<path d="M23.3337 22.1666V12.2499C23.3337 12.0688 23.2915 11.8902 23.2105 11.7282C23.1295 11.5662 23.0119 11.4253 22.867 11.3166L14.7003 5.19159C14.4984 5.04013 14.2528 4.95825 14.0003 4.95825C13.7479 4.95825 13.5023 5.04013 13.3003 5.19159L5.13366 11.3166C4.98876 11.4253 4.87116 11.5662 4.79016 11.7282C4.70916 11.8902 4.66699 12.0688 4.66699 12.2499V22.1666C4.66699 22.476 4.78991 22.7728 5.0087 22.9915C5.22749 23.2103 5.52424 23.3333 5.83366 23.3333H10.5003C10.8097 23.3333 11.1065 23.2103 11.3253 22.9915C11.5441 22.7728 11.667 22.476 11.667 22.1666V18.6666C11.667 18.3572 11.7899 18.0604 12.0087 17.8416C12.2275 17.6228 12.5242 17.4999 12.8337 17.4999H15.167C15.4764 17.4999 15.7732 17.6228 15.9919 17.8416C16.2107 18.0604 16.3337 18.3572 16.3337 18.6666V22.1666C16.3337 22.476 16.4566 22.7728 16.6754 22.9915C16.8942 23.2103 17.1909 23.3333 17.5003 23.3333H22.167C22.4764 23.3333 22.7732 23.2103 22.992 22.9915C23.2107 22.7728 23.3337 22.476 23.3337 22.1666Z" stroke="#3BADFC" stroke-width="2.5" stroke-linecap="round" stroke-linejoin="round"/>
</svg>
