<svg width="24" height="24" viewBox="0 0 24 24" fill="none" xmlns="http://www.w3.org/2000/svg">
<mask id="mask0_7492_88" style="mask-type:alpha" maskUnits="userSpaceOnUse" x="0" y="0" width="24" height="24">
<rect width="24" height="24" fill="#D9D9D9"/>
</mask>
<g mask="url(#mask0_7492_88)">
<path d="M3.95238 16.7143C3.4264 16.7143 3 16.2879 3 15.7619C3 15.2359 3.4264 14.8095 3.95238 14.8095H13.0476C13.5736 14.8095 14 15.2359 14 15.7619C14 16.2879 13.5736 16.7143 13.0476 16.7143H3.95238ZM1.95238 11.9524C1.4264 11.9524 1 11.526 1 11C1 10.474 1.4264 10.0476 1.95238 10.0476H18.0476C18.5736 10.0476 19 10.474 19 11C19 11.526 18.5736 11.9524 18.0476 11.9524H1.95238ZM6.95238 7.19048C6.4264 7.19048 6 6.76408 6 6.23809C6 5.71211 6.4264 5.28571 6.95238 5.28571H18.0476C18.5736 5.28571 19 5.71211 19 6.23809C19 6.76408 18.5736 7.19048 18.0476 7.19048H6.95238Z" fill="#636363"/>
</g>
</svg>
