<svg width="28" height="28" viewBox="0 0 28 28" fill="none" xmlns="http://www.w3.org/2000/svg">
<mask id="mask0_9708_9" style="mask-type:alpha" maskUnits="userSpaceOnUse" x="0" y="0" width="28" height="28">
<rect width="28" height="28" fill="#D9D9D9"/>
</mask>
<g mask="url(#mask0_9708_9)">
<path d="M14 14C12.4875 14 11.1927 13.4615 10.1156 12.3844C9.03854 11.3073 8.5 10.0125 8.5 8.5C8.5 6.9875 9.03854 5.69271 10.1156 4.61563C11.1927 3.53854 12.4875 3 14 3C15.5125 3 16.8073 3.53854 17.8844 4.61563C18.9615 5.69271 19.5 6.9875 19.5 8.5C19.5 10.0125 18.9615 11.3073 17.8844 12.3844C16.8073 13.4615 15.5125 14 14 14ZM3 25V21.15C3 20.3708 3.20052 19.6547 3.60156 19.0016C4.0026 18.3484 4.53542 17.85 5.2 17.5063C6.62083 16.7958 8.06458 16.263 9.53125 15.9078C10.9979 15.5526 12.4875 15.375 14 15.375C15.5125 15.375 17.0021 15.5526 18.4688 15.9078C19.9354 16.263 21.3792 16.7958 22.8 17.5063C23.4646 17.85 23.9974 18.3484 24.3984 19.0016C24.7995 19.6547 25 20.3708 25 21.15V25H3ZM5.75 22.25H22.25V21.15C22.25 20.8979 22.187 20.6687 22.0609 20.4625C21.9349 20.2563 21.7687 20.0958 21.5625 19.9813C20.325 19.3625 19.076 18.8984 17.8156 18.5891C16.5552 18.2797 15.2833 18.125 14 18.125C12.7167 18.125 11.4448 18.2797 10.1844 18.5891C8.92396 18.8984 7.675 19.3625 6.4375 19.9813C6.23125 20.0958 6.0651 20.2563 5.93906 20.4625C5.81302 20.6687 5.75 20.8979 5.75 21.15V22.25ZM14 11.25C14.7563 11.25 15.4036 10.9807 15.9422 10.4422C16.4807 9.90365 16.75 9.25625 16.75 8.5C16.75 7.74375 16.4807 7.09635 15.9422 6.55781C15.4036 6.01927 14.7563 5.75 14 5.75C13.2437 5.75 12.5964 6.01927 12.0578 6.55781C11.5193 7.09635 11.25 7.74375 11.25 8.5C11.25 9.25625 11.5193 9.90365 12.0578 10.4422C12.5964 10.9807 13.2437 11.25 14 11.25Z" fill="#636363"/>
</g>
</svg>
