<svg width="28" height="28" viewBox="0 0 28 28" fill="none" xmlns="http://www.w3.org/2000/svg">
<path d="M23.3333 5.83337C22.6333 5.83337 22.1667 6.41671 22.1667 7.11671V18.6667C22.1667 19.3667 22.6333 19.8334 23.3333 19.95C24.0333 19.95 24.5 19.3667 24.5 18.6667V7.11671C24.5 6.41671 24.0333 5.83337 23.3333 5.83337ZM19.1333 2.33337H5.36667C4.31667 2.33337 3.5 3.15004 3.5 4.20004V20.3C3.5 21.35 4.31667 22.1667 5.36667 22.1667H7V24.5C7 25.2 7.46667 25.6667 8.16667 25.6667H15.1667C15.8667 25.6667 16.3333 25.2 16.3333 24.5V22.1667H19.1333C20.1833 22.1667 21 21.35 21 20.3V4.20004C21 3.15004 20.1833 2.33337 19.1333 2.33337ZM5.83333 9.33337H9.33333V11.6667H5.83333V9.33337ZM14 12.8334V15.1667H10.5V12.8334H14ZM10.5 11.6667V9.33337H14V11.6667H10.5ZM14 16.3334V18.6667H10.5V16.3334H14ZM5.83333 12.8334H9.33333V15.1667H5.83333V12.8334ZM5.83333 18.6667V16.3334H9.33333V18.6667H5.83333ZM9.33333 24.5H8.16667V22.1667H9.33333V24.5ZM15.1667 24.5H11.6667V22.1667H15.1667V24.5ZM18.6667 18.6667H15.1667V16.3334H18.6667V18.6667ZM18.6667 15.1667H15.1667V12.8334H18.6667V15.1667ZM18.6667 11.6667H15.1667V9.33337H18.6667V11.6667ZM18.6667 7.00004H5.83333V4.66671H18.6667V7.00004Z" fill="#636363"/>
</svg>
