<svg width="28" height="28" viewBox="0 0 28 28" fill="none" xmlns="http://www.w3.org/2000/svg">
<path d="M23.3333 14H4.66666M18.6667 4.66663H21C21.6188 4.66663 22.2123 4.91246 22.6499 5.35004C23.0875 5.78763 23.3333 6.38112 23.3333 6.99996V9.33329M9.33333 23.3333H7C6.38116 23.3333 5.78767 23.0875 5.35008 22.6499C4.9125 22.2123 4.66666 21.6188 4.66666 21V18.6666M23.3333 18.6666V21C23.3333 21.6188 23.0875 22.2123 22.6499 22.6499C22.2123 23.0875 21.6188 23.3333 21 23.3333H18.6667M4.66666 9.33329V6.99996C4.66666 6.38112 4.9125 5.78763 5.35008 5.35004C5.78767 4.91246 6.38116 4.66663 7 4.66663H9.33333" stroke="#636363" stroke-width="2.5" stroke-linecap="round" stroke-linejoin="round"/>
</svg>
